<svg xmlns="http://www.w3.org/2000/svg" viewBox="0 0 512 512">
  <defs>
    <linearGradient id="grad" x1="0%" y1="0%" x2="100%" y2="100%">
      <stop offset="0%" stop-color="#00f3ff" />
      <stop offset="100%" stop-color="#ff00ea" />
    </linearGradient>
    <filter id="glow" x="-20%" y="-20%" width="140%" height="140%">
      <feGaussianBlur stdDeviation="12" result="blur" />
      <feMerge>
        <feMergeNode in="blur"/>
        <feMergeNode in="SourceGraphic"/>
      </feMerge>
    </filter>
  </defs>
  <!-- Dark background -->
  <rect width="512" height="512" rx="112" fill="#050510"/>
  
  <!-- Outer glowing border to mimic glass panel -->
  <rect x="20" y="20" width="472" height="472" rx="92" fill="#0A0A19" stroke="url(#grad)" stroke-width="4" opacity="0.8" filter="url(#glow)" />
  
  <!-- Inner dark glass fill -->
  <rect x="20" y="20" width="472" height="472" rx="92" fill="#0A0A19" opacity="0.9" />

  <!-- The chat bubble outline (back) -->
  <path d="M120 180 C120 120 180 70 256 70 C332 70 392 120 392 180 C392 240 332 290 256 290 L206 290 L146 330 L146 280 C130 255 120 220 120 180 Z" fill="none" stroke="#00f3ff" stroke-width="16" filter="url(#glow)"/>
  
  <!-- The chat bubble solid (front) -->
  <path d="M180 260 C180 200 240 150 316 150 C392 150 452 200 452 260 C452 320 392 370 316 370 L266 370 L206 410 L206 360 C190 335 180 300 180 260 Z" fill="url(#grad)" filter="url(#glow)"/>
  
  <!-- Typing dots inside the front bubble -->
  <circle cx="266" cy="260" r="16" fill="#050510"/>
  <circle cx="316" cy="260" r="16" fill="#050510"/>
  <circle cx="366" cy="260" r="16" fill="#050510"/>
</svg>
